<svg width="97" height="144" viewBox="0 0 97 144" fill="none" xmlns="http://www.w3.org/2000/svg">
<g clip-path="url(#clip0_9_94)">
<path d="M24.6183 143.5C37.7743 143.5 48.4516 132.823 48.4516 119.667V95.8334H24.6183C11.4623 95.8334 0.784943 106.511 0.784943 119.667C0.784943 132.823 11.4623 143.5 24.6183 143.5Z" fill="#0ACF83"/>
<path d="M0.784943 72C0.784943 58.844 11.4623 48.1666 24.6183 48.1666H48.4516V95.8333H24.6183C11.4623 95.8333 0.784943 85.156 0.784943 72Z" fill="#A259FF"/>
<path d="M0.784943 24.3333C0.784943 11.1773 11.4623 0.5 24.6183 0.5H48.4516V48.1667H24.6183C11.4623 48.1667 0.784943 37.4893 0.784943 24.3333Z" fill="#F24E1E"/>
<path d="M48.4516 0.5H72.285C85.441 0.5 96.1183 11.1773 96.1183 24.3333C96.1183 37.4893 85.441 48.1667 72.285 48.1667H48.4516V0.5Z" fill="#FF7262"/>
<path d="M96.1183 72C96.1183 85.156 85.441 95.8333 72.285 95.8333C59.129 95.8333 48.4516 85.156 48.4516 72C48.4516 58.844 59.129 48.1666 72.285 48.1666C85.441 48.1666 96.1183 58.844 96.1183 72Z" fill="#1ABCFE"/>
</g>
<defs>
<clipPath id="clip0_9_94">
<rect width="95.3524" height="143" fill="white" transform="translate(0.775421 0.5)"/>
</clipPath>
</defs>
</svg>
