<svg width="144" height="144" viewBox="0 0 144 144" fill="none" xmlns="http://www.w3.org/2000/svg">
<g clip-path="url(#clip0_9_90)">
<rect x="0.740601" y="0.570068" width="143" height="143" rx="10" fill="white"/>
<path fill-rule="evenodd" clip-rule="evenodd" d="M72.2406 36.5345C56.3497 36.5345 46.4231 44.4293 42.4489 60.2249C48.4073 52.3301 55.3606 49.3688 63.3031 51.341C67.8374 52.4671 71.0787 55.7383 74.6597 59.355C80.5048 65.2478 87.2675 72.07 102.032 72.07C117.923 72.07 127.85 64.1753 131.824 48.3797C125.866 56.2745 118.918 59.2358 110.97 57.2636C106.435 56.1375 103.194 52.8663 99.6072 49.2496C93.768 43.3509 87.0113 36.5345 72.2406 36.5345ZM42.4489 72.07C26.558 72.07 16.6315 79.9648 12.6573 95.7604C18.6156 87.8596 25.569 84.9043 33.5114 86.8765C38.0457 88.0026 41.287 91.2738 44.874 94.8905C50.7131 100.783 57.4758 107.606 72.2465 107.606C88.1374 107.606 98.064 99.7108 102.038 83.9152C96.0799 91.81 89.1265 94.7713 81.184 92.7991C76.6498 91.673 73.4084 88.4018 69.8275 84.7851C63.9764 78.8923 57.2137 72.07 42.4489 72.07Z" fill="#3EBFF8"/>
</g>
<defs>
<clipPath id="clip0_9_90">
<rect width="143" height="143" fill="white" transform="translate(0.740601 0.570068)"/>
</clipPath>
</defs>
</svg>
